<?xml version="1.0" encoding="utf-8"?>
<!-- Generator: Adobe Illustrator 16.0.0, SVG Export Plug-In . SVG Version: 6.00 Build 0)  -->
<!DOCTYPE svg PUBLIC "-//W3C//DTD SVG 1.1//EN" "http://www.w3.org/Graphics/SVG/1.1/DTD/svg11.dtd">
<svg version="1.1" id="Layer_1" xmlns="http://www.w3.org/2000/svg" xmlns:xlink="http://www.w3.org/1999/xlink" x="0px" y="0px"
	 width="50px" height="50px" viewBox="0 0 50 50" enable-background="new 0 0 50 50" xml:space="preserve">
<g>
	<g>
		<path fill="#616161" d="M24.852,0.398C11.438,0.398,0.54,11.297,0.54,24.71c0,13.401,10.898,24.301,24.312,24.301
			c13.402,0,24.3-10.899,24.3-24.301C49.151,11.297,38.254,0.398,24.852,0.398z M34.353,8.642c0.082,0.105,0.116,0.246,0.104,0.361
			c-0.104,0.036-0.186,0.117-0.221,0.199c-0.069,0.023-0.069,0.023-0.139,0.035c-0.069,0.093-0.151,0.162-0.257,0.186
			c-0.175,0.069-0.372,0.069-0.547,0.14c-0.07,0.035-0.128,0.081-0.199,0.046c-0.035-0.011-0.069-0.046-0.104-0.046
			c-0.034-0.013-0.082,0-0.104,0.035c-0.013,0.035-0.013,0.082,0.021,0.117c-0.034,0.139-0.069,0.291-0.104,0.431
			c-0.022,0.081-0.035,0.163-0.093,0.255c-0.128,0.223-0.443,0.292-0.535,0.513c-0.06,0-0.129,0-0.177,0
			c-0.08-0.186-0.255-0.325-0.29-0.536c-0.013-0.115-0.013-0.255,0.023-0.372c0.081-0.046,0.128-0.141,0.128-0.232
			c0.022,0,0.059-0.024,0.069-0.024c0.023-0.105,0.035-0.222,0.117-0.292c0.069,0.035,0.139,0.035,0.21-0.011
			c-0.104-0.035-0.176-0.151-0.267-0.175c-0.037,0-0.071,0-0.107,0c-0.057,0-0.115-0.011-0.174-0.011
			c-0.047,0-0.104,0.011-0.104,0.069c-0.082,0-0.151-0.023-0.233-0.023c0-0.081,0.012-0.151,0.047-0.221
			c-0.047-0.011-0.116-0.011-0.164-0.011c-0.092-0.117-0.174-0.222-0.279-0.35c-0.034-0.046-0.069-0.082-0.093-0.128
			c-0.023-0.035-0.059-0.093-0.069-0.127c-0.095-0.128-0.246-0.164-0.397-0.233c-0.035-0.011-0.069,0.023-0.104,0.035
			c-0.116,0.082-0.268,0.035-0.406-0.011c-0.035-0.035-0.013-0.105,0.034-0.127c0.035-0.037,0.104-0.037,0.139-0.047
			c-0.021-0.059-0.091-0.069-0.069-0.117c0-0.069,0.013-0.163,0.013-0.221c0.022-0.024,0.057-0.024,0.069-0.035
			c0-0.023-0.013-0.035-0.013-0.058c-0.069,0-0.127,0-0.186,0c-0.035,0-0.069,0-0.104-0.011c-0.059-0.023-0.069-0.071-0.082-0.117
			c0.094-0.058,0.199-0.127,0.269-0.209c0.013-0.013,0.013-0.035,0.034-0.047c0.013-0.035,0.013-0.069,0.035-0.093
			c0.034,0,0.069,0,0.082,0.024c0.034-0.059,0.082-0.082,0.151-0.141c0.116-0.104,0.255-0.186,0.406-0.221
			c0.035-0.011,0.095-0.011,0.13-0.035c0.034-0.013,0.08-0.035,0.116-0.069c0.081-0.047,0.163-0.117,0.256-0.164
			c0.047-0.035,0.082-0.058,0.139-0.069c0.025-0.023,0.06-0.023,0.095-0.023c0.187-0.035,0.359-0.035,0.534-0.082
			c0.046-0.011,0.082-0.081,0.071-0.15c-0.142-0.036-0.257-0.151-0.419-0.175c-0.095-0.011-0.222-0.011-0.269-0.082
			c0.035,0,0.047-0.035,0.082-0.035c0.022,0,0.035,0,0.035,0C31.523,5.977,31.593,5.987,31.64,6
			c0.104,0.035,0.221,0.059,0.313,0.128c0.046,0.035,0.082,0.058,0.117,0.093c0.011,0.024,0.046,0.035,0.069,0.059
			c0.036,0,0.046,0,0.082,0c0.035,0,0.069-0.035,0.105-0.035c0.115,0.011,0.221-0.036,0.303-0.117
			c0.022-0.024,0.022-0.024,0.035-0.035c0.021,0,0.034,0,0.046,0c0.07,0,0.105,0.035,0.175,0.045c0.034-0.011,0.069-0.011,0.104,0
			C33.13,6.163,33.223,6,33.362,6.022c0.047,0,0.082,0.013,0.14,0.013c0.012-0.058,0.012-0.117,0.035-0.188
			c-0.175-0.011-0.361-0.033-0.535-0.069c0.022-0.082-0.07-0.151-0.151-0.186c-0.013,0-0.034,0-0.047-0.011
			c-0.035-0.035-0.022-0.093,0-0.14c0.116,0.069,0.268,0.117,0.407,0.117c0,0.058,0.012,0.139,0.069,0.164
			c0.013,0.011,0.047,0.011,0.07,0c0.117,0,0.223,0,0.338,0.022c0.011,0,0.036,0,0.047,0h0.024c0.813,0.396,1.594,0.839,2.362,1.339
			c-0.187-0.059-0.396-0.093-0.594-0.093c-0.034,0-0.069,0-0.104,0c-0.036,0.024-0.048,0.035-0.082,0.059
			c-0.187,0.117-0.326,0.268-0.502,0.407c-0.013,0.082-0.034,0.188-0.034,0.292c0,0.011,0,0.011,0,0.035
			c0,0.011-0.035,0.011-0.035,0.023c-0.233,0.093-0.536,0.197-0.605,0.431c-0.021,0.105-0.059,0.186-0.059,0.292
			C34.235,8.607,34.283,8.63,34.353,8.642z M29.16,4.59c-0.036,0.035-0.06,0.069-0.07,0.117c-0.046,0-0.105-0.011-0.153-0.011
			c0.013-0.036,0-0.093-0.021-0.117c-0.012-0.035-0.048-0.069-0.069-0.127c-0.095-0.035-0.199-0.047-0.291-0.047
			c-0.095,0-0.198,0.035-0.268,0.117c-0.105-0.011-0.199-0.011-0.292-0.035c-0.034,0-0.046,0-0.082-0.013
			c-0.011-0.022-0.034-0.035-0.034-0.069c-0.081-0.024-0.176-0.035-0.258-0.059c0-0.022,0-0.046,0-0.081
			c-0.045-0.012-0.08-0.012-0.139-0.036C27.47,4.218,27.47,4.16,27.505,4.147c0.013-0.011,0.071-0.035,0.107-0.035
			c0.046-0.011,0.115-0.011,0.16-0.035c0-0.011,0-0.035,0-0.046c0.688,0.104,1.352,0.221,1.992,0.373
			c-0.046,0-0.093,0.012-0.151,0.012c-0.128,0.022-0.267,0.022-0.408,0.035C29.205,4.486,29.17,4.544,29.16,4.59z M18.785,5.721
			c-0.023,0.022-0.035,0.057-0.069,0.093C18.75,5.778,18.762,5.743,18.785,5.721z M30.394,4.556
			c0.233,0.047,0.431,0.117,0.651,0.186c-0.011,0-0.011,0-0.034,0c-0.046,0-0.081-0.011-0.117-0.035
			c-0.14-0.047-0.267-0.069-0.406-0.082C30.45,4.625,30.429,4.59,30.394,4.556z M36.528,7.467c-0.034-0.035-0.069-0.082-0.08-0.141
			c0.257,0.175,0.513,0.361,0.768,0.537c-0.069,0.011-0.139-0.024-0.221-0.035c-0.093-0.024-0.186-0.037-0.279-0.047
			c0.024-0.07,0.024-0.139,0.035-0.21C36.671,7.56,36.589,7.525,36.528,7.467z M36.634,8.934c0.048-0.046,0.106-0.104,0.176-0.082
			c0.013,0,0.034,0,0.034,0c0.013,0,0.023-0.035,0.023-0.057c0.024-0.047,0.035-0.094,0.059-0.129c-0.034,0-0.059-0.024-0.082-0.024
			c-0.021-0.046-0.059-0.104-0.093-0.15c0.034-0.023,0.093-0.023,0.116-0.036c0-0.069,0.024-0.151,0.035-0.221
			c0.036,0,0.093,0,0.128,0c0.013-0.069,0.023-0.117,0.023-0.186c0.035-0.035,0.093,0,0.141-0.024
			c0.034-0.011,0.057-0.045,0.057-0.058c0-0.024,0-0.024,0-0.035c0.28,0.199,0.56,0.419,0.826,0.64
			c-0.267,0.151-0.511,0.396-0.813,0.361c-0.104-0.011-0.21-0.011-0.303-0.035c-0.022,0-0.035,0-0.059,0
			c-0.011,0-0.011,0.023-0.035,0.023c-0.082,0.058-0.151,0.128-0.222,0.221c-0.012,0-0.046,0.011-0.057,0.011
			c-0.035,0-0.061,0-0.095-0.011c-0.012-0.023-0.035-0.035-0.035-0.069C36.554,9.05,36.6,8.98,36.634,8.934z M38.265,8.712
			c0.059,0.046,0.104,0.082,0.163,0.139c-0.035,0-0.094-0.022-0.128-0.022c0-0.035-0.012-0.071-0.046-0.082
			C38.265,8.712,38.265,8.712,38.265,8.712z M3.951,24.71c0-8.675,5.31-16.138,12.843-19.281c0,0,0,0,0.012,0
			c0.082,0.035,0.187,0.035,0.28,0.059c0.081,0.035,0.163,0.127,0.163,0.233c0.209,0,0.442,0.045,0.558,0.221
			c0.094,0.093,0.105,0.231,0.128,0.372c0.128-0.024,0.233-0.128,0.303-0.245c0.104,0.035,0.208,0.093,0.303,0.139
			c0.058,0.036,0.104,0.117,0.058,0.175c-0.035-0.023-0.093-0.035-0.128-0.058c-0.024,0.035,0,0.105,0.023,0.14
			c0.035,0.035,0.069,0.069,0.082,0.117c0.023,0.046,0,0.081,0,0.139c-0.012,0.117-0.047,0.257-0.07,0.372
			c-0.035,0.151-0.046,0.292-0.059,0.443c-0.057-0.011-0.104-0.011-0.162-0.035c-0.046,0.082-0.117,0.151-0.198,0.221
			c0,0.106-0.023,0.21-0.035,0.292c0.046,0.035,0.105,0.069,0.151,0.117c0.023,0.022,0.023,0.022,0.036,0.035
			c0,0.022,0,0.035,0,0.058c-0.012,0.059-0.012,0.163-0.036,0.232c0.07,0,0.14,0,0.209,0c0,0.036,0,0.071-0.022,0.105
			c-0.07,0.046-0.151,0.069-0.233,0.069c-0.024,0-0.035,0-0.059,0c-0.011,0-0.011,0.011-0.011,0.011
			c-0.035,0.059-0.082,0.105-0.151,0.141c0.011,0.082,0.047,0.175,0.116,0.221c0.046,0.036,0.105,0.036,0.14,0.071
			c0.047,0.035,0.082,0.081,0.047,0.128c0.116,0.035,0.256,0.093,0.36,0.175c-0.035,0.069-0.035,0.173,0.012,0.232
			c0.023,0.023,0.035,0.058,0.035,0.071c-0.011,0.035-0.011,0.069-0.035,0.104c0,0.07-0.012,0.151-0.082,0.151
			c-0.023,0.245-0.175,0.465-0.373,0.582c0.035-0.104,0.082-0.209,0.117-0.303c0.012-0.022,0.012-0.058,0.012-0.069
			c0-0.082-0.117-0.117-0.198-0.105c-0.082,0.023-0.186,0.036-0.245-0.011c-0.093,0.349-0.279,0.675-0.559,0.932
			c-0.046,0.046-0.104,0.104-0.116,0.151c-0.023,0.057-0.023,0.093-0.035,0.139c-0.036,0.082-0.117,0.151-0.186,0.199
			c-0.175,0.139-0.327,0.314-0.478,0.465c-0.151,0.175-0.303,0.337-0.465,0.513c-0.023,0.045-0.082,0.082-0.117,0.139
			c-0.035,0.047-0.046,0.117-0.07,0.164c-0.07,0.139-0.151,0.279-0.268,0.372c0.046,0.105,0.081,0.209,0.116,0.315
			c0.07-0.024,0.151-0.059,0.221-0.071c0.035,0.035,0.035,0.117,0.023,0.175c-0.023,0.047-0.069,0.093-0.105,0.128
			c-0.022,0.023-0.035,0.035-0.058,0.058c0.023,0.257,0.058,0.523-0.023,0.757c-0.023,0.035-0.035,0.07-0.035,0.128
			c0,0.035,0,0.082,0.012,0.117c0.023,0.082-0.012,0.186-0.012,0.268c0,0.093,0.046,0.186,0.151,0.21c0.012,0,0.046,0,0.069,0
			c0.151,0,0.28,0.104,0.35,0.231c0.093,0.141,0.104,0.281,0.139,0.431c0,0.036,0.036,0.047,0.047,0.071c0,0,0,0-0.012,0
			c-0.012,0.047-0.046,0.082-0.07,0.14c-0.046,0.128-0.069,0.301-0.012,0.441c0.012,0.024,0.036,0.059,0.036,0.117
			c0,0.047-0.036,0.106-0.059,0.151c-0.046,0.141,0.059,0.268,0.14,0.396c0.081,0.117,0.163,0.268,0.105,0.385
			c-0.035,0.069-0.105,0.115-0.105,0.186c-0.046,0-0.117,0-0.174,0.022c-0.046,0.047-0.012,0.141,0.023,0.188
			c0.035,0.045,0.081,0.139,0.046,0.186c0.141,0.069,0.256,0.139,0.396,0.209c0.035,0.011,0.046,0.022,0.07,0.046
			c0.012,0.035,0.035,0.069,0.035,0.106c0.012,0.093,0.012,0.197,0.023,0.303c-0.058,0-0.117,0-0.187,0
			c-0.011,0.117-0.011,0.244,0.036,0.325c0.093,0.117,0.291,0.186,0.279,0.337c0.081-0.011,0.128,0.106,0.128,0.188
			c0,0.081-0.023,0.187,0.035,0.256c0.07-0.046,0.151-0.082,0.21-0.151c0.046-0.069,0.081-0.151,0.069-0.245
			c-0.035-0.093-0.151-0.163-0.256-0.199c0-0.104,0.012-0.208,0.012-0.301c-0.117-0.036-0.127-0.209-0.093-0.326
			c0.023-0.128,0.093-0.245,0.046-0.361c-0.035-0.105-0.14-0.175-0.174-0.257c-0.036-0.104,0.035-0.221,0.023-0.338
			c-0.023-0.173-0.174-0.313-0.21-0.476c-0.012-0.105,0-0.21-0.035-0.292c-0.012-0.045-0.046-0.082-0.07-0.117
			c-0.046-0.151,0.093-0.279,0.187-0.396c0.069-0.069,0.128-0.175,0.069-0.232c0.059,0,0.093,0.011,0.14,0.011
			c-0.035,0.069,0.024,0.151,0.082,0.186c0.07,0.035,0.151,0.069,0.174,0.151c0.012,0.035,0.012,0.093,0,0.139
			c-0.023,0.175-0.035,0.339-0.046,0.513c0,0.036,0,0.071,0,0.105c0.012,0.035,0.046,0.069,0.058,0.093
			c0.036,0.093,0.024,0.175,0.036,0.279c0.023,0.106,0.104,0.175,0.174,0.233c0.186,0.245,0.221,0.571,0.232,0.861
			c-0.023,0.082,0.024,0.129,0.07,0.199c0.058,0.069,0.14,0.117,0.186,0.209c0.059,0.059,0.069,0.186,0,0.256
			c0.222,0.162,0.384,0.443,0.431,0.711c0.011,0.046,0.011,0.115,0.011,0.186c0.023,0.139,0.036,0.291,0.058,0.431
			c-0.151,0.011-0.279,0.186-0.221,0.337c0.035,0.104,0,0.21,0.047,0.303c0.069,0.139,0.255,0.245,0.372,0.175
			c0.023,0.069,0.058,0.151,0.07,0.221c0.022,0.035,0.022,0.082,0.058,0.117c0.081,0.104,0.255,0.069,0.349,0.139
			c0.104,0.071,0.128,0.199,0.187,0.292c0.104,0.151,0.349,0.221,0.361,0.407c0.035,0,0.069-0.035,0.058-0.069
			c0-0.035,0.024-0.046,0.059-0.046c0.093,0,0.174,0,0.244,0c0.035,0.151,0.163,0.267,0.303,0.372
			c0.07,0.046,0.117,0.104,0.186,0.151c0.129,0.104,0.28,0.197,0.432,0.152c0.117-0.035,0.198-0.141,0.326-0.187
			c0.093-0.036,0.221-0.012,0.303,0.046c0.151,0.128,0.186,0.327,0.338,0.431c0.069,0.047,0.174,0.047,0.209,0.117
			c0.046,0.069,0.035,0.186,0.081,0.244c0,0.011,0,0.011,0,0.035c0.105,0.082,0.187,0.162,0.303,0.221
			c0.059,0.013,0.128,0.036,0.175,0.036H22.79c0,0.011,0,0.011,0.012,0.035c0.022,0.023,0.069,0.047,0.104,0.047
			c0.035,0,0.082,0.011,0.117,0.035c0.035,0.011,0.058,0.069,0.035,0.104c0.116-0.023,0.221,0,0.338,0.024
			c0.023,0,0.035,0.023,0.058,0.023h0.011c0.082,0.046,0.152,0.151,0.209,0.232c0.046,0.127,0.094,0.244,0.187,0.35
			c0.035,0.035,0.046,0.045,0.069,0.081c0.035,0.047,0.035,0.105,0.035,0.151c0,0.071,0,0.14,0.047,0.175
			c0.011,0,0.011,0.011,0.035,0.011l0,0c-0.035,0.153-0.058,0.292-0.058,0.443c0.07,0.105,0.244,0.093,0.326,0.175
			c0.023-0.013,0.035-0.034,0.035-0.047c-0.105-0.035-0.151-0.163-0.128-0.255c0.082,0.035,0.151,0.117,0.187,0.197
			c0.012,0.093,0.012,0.187-0.024,0.292c0.036,0,0.07,0.011,0.105,0.011c0-0.046,0.069-0.08,0.117-0.058
			c0.058,0.081,0.069,0.186,0.035,0.291c0.07,0.023,0.105,0.082,0.117,0.151c0.07,0,0.14,0,0.186,0.012l0,0l0,0
			c0.093,0.058,0.21,0.023,0.291,0.07c0.069,0.104,0.105,0.221,0.141,0.338c0.104,0.023,0.186,0.034,0.29,0.069
			c0.082-0.069,0.047-0.221,0.14-0.292c0.023-0.034,0.093-0.046,0.093-0.093c0-0.022-0.012-0.035,0-0.057
			c0-0.013,0.023-0.013,0.035-0.036c0.093-0.069,0.174-0.115,0.256-0.163c0.023,0.023,0.059,0.048,0.081,0.048
			c-0.022,0.034-0.058,0.08-0.058,0.151c0.081,0.034,0.162,0.067,0.232,0.115c0.059,0.023,0.105,0.093,0.069,0.127
			c-0.011,0.013-0.034,0.013-0.046,0.013c-0.094,0.013-0.163,0.106-0.163,0.187c0.094,0.059,0.128,0.141,0.175,0.221
			c0.023,0.036,0.046,0.047,0.07,0.082c0-0.011,0-0.035,0.012-0.046c-0.059,0.187-0.012,0.407,0.058,0.593
			c0,0.024,0.012,0.059,0.012,0.094c0,0.023-0.012,0.08-0.036,0.116c-0.033,0.071-0.081,0.139-0.092,0.197
			c-0.023,0.105-0.023,0.211-0.059,0.292c-0.012,0.034-0.046,0.069-0.082,0.105c-0.034,0.034-0.058,0.08-0.093,0.115
			c-0.022,0.034-0.058,0.034-0.116,0.059c-0.093,0.034-0.221,0.093-0.292,0.186c-0.081,0.082-0.116,0.199-0.093,0.326l0,0
			c-0.128,0.048-0.221,0.094-0.35,0.164c-0.093,0.069-0.186,0.15-0.291,0.221c-0.023,0.035-0.081,0.069-0.081,0.14
			c0,0.036,0,0.047,0,0.082c0,0.116-0.117,0.209-0.232,0.255c0,0.105-0.024,0.188-0.024,0.292c0,0.034,0,0.046,0.024,0.082
			c0.012,0.021,0.035,0.034,0.045,0.057c0.117,0.082,0.256,0.116,0.397,0.116c0,0.117-0.105,0.233-0.222,0.233
			c0,0.059,0.035,0.094,0.069,0.128c-0.092,0.013-0.163,0.035-0.245,0.013c-0.081,0.069-0.186,0.151-0.221,0.256
			c-0.046,0.105-0.012,0.257,0.082,0.303c-0.059,0.093-0.117,0.162-0.187,0.244c0.036,0.048,0.07,0.082,0.105,0.141
			c-0.035,0.046-0.069,0.115-0.105,0.162c0.315,0.059,0.536,0.327,0.652,0.63c0.116,0.29,0.151,0.616,0.268,0.908
			c0.15,0.361,0.431,0.709,0.326,1.095c0.081-0.059,0.187,0,0.221,0.08c0.035,0.082,0.035,0.164,0.035,0.268
			c-0.012,0.21-0.035,0.409-0.035,0.595c0.257,0.035,0.407,0.29,0.582,0.466c0.188,0.186,0.442,0.291,0.663,0.43
			c0.221,0.128,0.443,0.315,0.513,0.571c0.082,0.059,0.141,0.093,0.233,0.141c-0.011-0.023-0.034-0.023-0.071-0.036
			c0,0.442,0.095,0.909,0.106,1.362c0,0.116,0,0.244-0.081,0.326c-0.036,0.035-0.07,0.046-0.082,0.104
			c-0.023,0.023-0.023,0.059-0.023,0.093c0,0.128,0,0.257,0,0.385c0,0.151-0.034,0.351-0.034,0.502c0,0.173,0.023,0.359,0.023,0.534
			c0,0.141-0.023,0.257-0.035,0.385c0,0.059-0.025,0.104-0.036,0.162c-0.034,0.048-0.093,0.094-0.115,0.13
			c-0.129,0.139-0.142,0.349-0.06,0.5c0.141,0.151-0.069,0.406,0.034,0.593c0.151,0.326-0.009,0.735-0.08,1.095
			c-0.059,0.257-0.105,0.501-0.175,0.757c-0.013,0.093-0.035,0.175-0.082,0.244c-0.035,0.048-0.069,0.105-0.081,0.151
			c-0.105,0.21,0,0.433,0.094,0.653c-0.815,0.093-1.666,0.151-2.516,0.151C13.336,45.622,3.951,36.238,3.951,24.71z M29.275,39.545
			c0-0.06,0-0.105,0-0.152C29.275,39.439,29.287,39.485,29.275,39.545z M30.719,39.3c0.025-0.012,0.035-0.012,0.06-0.035
			c-0.024,0-0.024,0.023-0.034,0.023C30.744,39.3,30.744,39.3,30.719,39.3z M32.152,38.603c0.023,0,0.033,0.021,0.059,0.021l0,0
			C32.186,38.624,32.176,38.603,32.152,38.603z M34.399,43.305c0.092-0.186,0.187-0.36,0.325-0.488c0.047,0,0.141-0.024,0.186-0.024
			c0.188,0,0.292-0.231,0.258-0.417c-0.037-0.188-0.117-0.385-0.117-0.571c0-0.374,0.396-0.629,0.733-0.792
			c0.129-0.07,0.29-0.14,0.441-0.164c0.048,0,0.117,0,0.164,0c0.199-0.034,0.326-0.231,0.513-0.255
			c0.128-0.012,0.223,0.058,0.326,0.069c0.117,0.023,0.256-0.035,0.256-0.128c0.082,0.059,0.21,0.047,0.29-0.023
			c0.082-0.069,0.117-0.163,0.151-0.269c0.141-0.359,0.269-0.722,0.397-1.07c0.187-0.512,0.662-1.082,0.441-1.572
			c-0.104-0.221-0.057-0.487,0.104-0.663c0.082,0.046,0.188-0.013,0.233-0.105c0.034-0.08,0.047-0.186,0.082-0.268
			c0.058-0.128,0.21-0.21,0.35-0.187c0-0.139,0.035-0.279,0.082-0.383c0.046,0.057,0.117,0.093,0.174,0.139
			c0.233-0.197,0.477-0.418,0.593-0.733c0.164-0.42,0.071-0.933-0.057-1.374c-0.269-0.058-0.536-0.151-0.78-0.315
			c0.034-0.186-0.106-0.349-0.232-0.5c-0.06-0.069-0.129-0.127-0.188-0.162c-0.069-0.036-0.141-0.047-0.21-0.047
			c-0.324-0.069-0.651-0.139-0.965-0.187c-0.105-0.011-0.212-0.034-0.315-0.011c-0.104,0.011-0.199,0.08-0.233,0.162
			c-0.035,0-0.069-0.047-0.057-0.082c0.021-0.034,0.034-0.069,0.069-0.104c0.082-0.104,0.104-0.269,0.057-0.396
			c-0.057-0.116-0.174-0.268-0.312-0.279c-0.151-0.14-0.35-0.209-0.56-0.257c-0.046-0.023-0.105-0.034-0.175-0.059
			c-0.035-0.011-0.069-0.011-0.117-0.011c-0.082,0-0.151,0.082-0.197,0.151c-0.093,0.104-0.162,0.221-0.244,0.326
			c-0.187-0.093-0.372-0.175-0.547-0.257c-0.048-0.023-0.117-0.059-0.128-0.128c-0.105,0.024-0.221,0.035-0.326,0.059
			c0.011-0.082,0.045-0.186,0.07-0.279c0.187-0.013,0.384-0.151,0.349-0.315c0.059,0.048,0.141,0.013,0.187-0.034
			c0.058-0.059,0.069-0.128,0.14-0.175c0.035-0.012,0.069-0.035,0.115-0.046c0.128-0.035,0.223-0.117,0.314-0.223
			c-0.139,0.036-0.29-0.128-0.209-0.243c-0.116,0.022-0.198-0.105-0.221-0.222c-0.013-0.115,0.022-0.232-0.013-0.338
			c-0.023-0.047-0.034-0.104-0.058-0.175l0,0c0.023-0.012,0.034-0.035,0.034-0.046c-0.08-0.035-0.128-0.141-0.104-0.221
			c-0.024-0.023-0.046-0.036-0.082-0.048c-0.081-0.069-0.187-0.127-0.258-0.209c-0.069-0.082-0.114-0.21-0.08-0.303
			c-0.08,0-0.151,0-0.244,0c0,0,0,0,0,0.012c0.021-0.012,0.021-0.047,0-0.07c-0.082,0.059-0.187,0-0.256-0.046
			c-0.082-0.059-0.151-0.117-0.233-0.141c-0.151-0.034-0.29,0.071-0.441,0.059c-0.047,0-0.116-0.023-0.177-0.023
			c0,0.023-0.011,0.023-0.011,0.036c0.011-0.013,0.036-0.036,0.036-0.048c-0.06-0.023-0.105-0.058-0.177-0.069
			c0.036-0.094-0.069-0.209-0.149-0.188c0-0.057,0.011-0.104,0.011-0.173c-0.035,0-0.059-0.013-0.082-0.013
			c-0.011,0.034-0.034,0.058-0.034,0.116c-0.048,0-0.082-0.023-0.128-0.023c-0.035-0.08,0.08-0.126,0.093-0.221
			c0.035-0.117-0.164-0.233-0.093-0.338c-0.059-0.047-0.141-0.08-0.21-0.069c-0.023-0.047-0.023-0.082-0.035-0.129
			c-0.047,0.013-0.082,0.023-0.139,0.047l-0.013-0.023c-0.034-0.046-0.058-0.093-0.034-0.128c-0.048,0-0.082-0.034-0.104-0.093
			c-0.013-0.035-0.013-0.082-0.036-0.129c0-0.033-0.011-0.092-0.034-0.115c-0.094,0-0.197-0.024-0.292-0.071
			c0-0.057,0.023-0.104,0.023-0.161c-0.059,0-0.105-0.025-0.139-0.082c-0.013-0.036-0.036-0.07-0.048-0.105
			c0,0.023,0.012,0,0.012-0.013c0.023-0.067,0.036-0.139,0.06-0.208c-0.095,0-0.151,0-0.246,0c-0.069,0-0.139,0-0.186,0.035
			c-0.012,0.023-0.048,0.023-0.069,0.034c-0.104,0.059-0.199,0.059-0.325,0.059c-0.025,0.047-0.082,0.093-0.117,0.151
			c-0.012,0-0.034,0-0.047,0c-0.022,0-0.035,0-0.035,0v-0.023c0-0.012,0-0.048-0.023-0.059c-0.058,0-0.116-0.022-0.186-0.022
			c0.023-0.034,0.034-0.07,0-0.105c-0.035-0.034-0.048-0.046-0.094-0.046c0.046-0.023,0.046-0.082,0.012-0.116h-0.012
			c-0.069-0.036-0.164,0.034-0.164,0.093c-0.045,0-0.091-0.011-0.151-0.011c-0.034,0-0.069-0.024-0.104-0.024
			c0-0.023,0-0.058-0.013-0.094c-0.046,0-0.08,0-0.139,0c0,0.047-0.013,0.082-0.013,0.129c-0.08-0.035-0.151-0.059-0.243-0.082
			c0.057-0.104,0.022-0.221,0-0.326c-0.095-0.046-0.198-0.115-0.303-0.163c-0.071-0.058-0.151-0.138-0.141-0.22
			c-0.034,0-0.045,0-0.082,0c-0.011,0.082-0.011,0.163,0,0.255c-0.08,0-0.149,0.059-0.186,0.128
			c-0.035,0.07-0.035,0.151-0.035,0.244c0,0.082,0,0.188-0.023,0.269c0,0.036,0,0.07-0.011,0.093
			c-0.011,0.023-0.071,0.059-0.081,0.093c-0.024,0.059-0.024,0.105-0.024,0.153c0,0.059-0.012,0.126-0.069,0.126
			c-0.013-0.092-0.013-0.174-0.022-0.243c-0.025-0.036-0.095,0-0.141,0c-0.07,0-0.105-0.07-0.105-0.118
			c-0.011-0.046-0.011-0.139-0.069-0.149c0.069-0.21,0.208-0.396,0.361-0.536c0.046-0.046,0.115-0.094,0.151-0.163
			c0.034-0.069,0.011-0.151-0.046-0.186v0.011c0-0.045-0.035-0.08-0.06-0.117c-0.035-0.045-0.092-0.081-0.151-0.081
			c-0.035,0-0.069,0.035-0.081,0.046c-0.058,0.035-0.093,0.071-0.14,0.106c-0.07,0.035-0.117,0.08-0.187,0.115
			c-0.047,0.037-0.117,0.071-0.187,0.071c-0.047,0-0.116-0.035-0.175-0.024c-0.034,0.024-0.046,0.058-0.08,0.058
			c-0.023,0-0.036-0.023-0.048-0.023c-0.104-0.045-0.221-0.011-0.35,0.023c-0.011,0-0.035,0.012-0.035,0.012
			c-0.011,0.023-0.034,0.034-0.034,0.07c-0.022,0.104-0.082,0.209-0.117,0.302c-0.034,0.128-0.082,0.222-0.186,0.315
			c-0.082,0.069-0.163,0.139-0.233,0.197c-0.092-0.012-0.187-0.048-0.256-0.094c-0.034-0.021-0.069-0.034-0.093-0.069
			c-0.035-0.034-0.046-0.069-0.059-0.128c-0.129-0.222-0.396-0.314-0.641-0.233c-0.163,0.071-0.314,0.222-0.488,0.176
			c-0.105-0.023-0.186-0.104-0.292-0.094c0-0.034,0-0.082,0-0.116c-0.035,0.011-0.045,0.011-0.081,0.011l0,0
			c0.011-0.011,0.011-0.021,0-0.046c-0.058-0.07-0.117-0.116-0.175-0.186c-0.012-0.013-0.035-0.035-0.046-0.071
			c-0.024-0.034,0-0.069-0.024-0.104c-0.011-0.058-0.093-0.117-0.093-0.197c0-0.037,0.035-0.071,0.046-0.082
			c0.012-0.059,0.012-0.104,0-0.164l0,0c0-0.221,0-0.453,0.117-0.628c0.035-0.036,0.069-0.071,0.081-0.117
			c0.024-0.035,0.024-0.082,0.036-0.14c0.035-0.104,0.128-0.163,0.174-0.255c0.046-0.082,0.046-0.199,0.023-0.292
			c0,0-0.023,0-0.023,0.023c0.081-0.035,0.105-0.175,0.105-0.255c-0.175-0.14-0.408-0.105-0.628-0.105
			c-0.292,0-0.595-0.082-0.886-0.011c-0.058,0.011-0.104,0.035-0.14,0.011l0,0l0,0c0.012-0.011,0.036-0.035,0.036-0.047
			c0.046-0.057,0.081-0.115,0.116-0.186c0.047-0.104,0.082-0.221,0.105-0.337c0.012-0.139,0.036-0.279,0.046-0.431
			c0-0.022,0-0.035,0-0.047l0,0c0.059-0.022,0.128-0.033,0.151-0.093c0.035-0.045,0.035-0.104,0.059-0.162
			c0.046-0.221,0.221-0.407,0.384-0.582c0.059-0.058,0.141-0.117,0.21-0.082c0-0.035,0.023-0.069,0.023-0.128
			c-0.023,0-0.035-0.011-0.059-0.011c0.024-0.059,0.036-0.106,0.059-0.175c-0.233-0.104-0.489-0.117-0.722-0.047
			c-0.046,0.013-0.116,0.037-0.175,0.013c-0.046,0-0.082-0.035-0.128-0.045c-0.151-0.047-0.326,0.045-0.408,0.185
			c-0.093,0.14-0.14,0.292-0.174,0.443c-0.046,0.151-0.117,0.303-0.256,0.407c-0.175-0.104-0.396-0.151-0.594-0.151
			c-0.035,0-0.07,0-0.082,0.013c-0.022,0.024-0.058,0.035-0.07,0.069c-0.069,0.069-0.163,0.093-0.244,0.069
			c-0.105-0.011-0.198-0.104-0.303-0.08c0-0.117-0.105-0.21-0.175-0.292c-0.035-0.035-0.069-0.069-0.069-0.117
			c0-0.035,0-0.093,0-0.127c0-0.093-0.081-0.187-0.128-0.279c-0.059-0.106-0.069-0.221-0.069-0.349
			c-0.024-0.153-0.024-0.281-0.035-0.443c0-0.069,0-0.127,0-0.186c0.011-0.082,0.081-0.153,0.139-0.233
			c0.047-0.093,0.094-0.186,0.117-0.292c0.012-0.104,0.046-0.208,0.117-0.279c0.069-0.057,0.151-0.127,0.209-0.221
			c0.047-0.082,0.069-0.163,0.069-0.268c-0.035-0.011-0.069-0.035-0.093-0.069c0.035,0.023,0.07,0.058,0.105,0.069
			c0.035-0.151,0.082-0.303,0.139-0.441c0-0.035,0.012-0.047,0.035-0.071c0.023-0.035,0.058-0.035,0.094-0.035
			c0.069-0.011,0.14-0.045,0.186-0.104c0.035-0.035,0.069-0.058,0.105-0.093c0.057-0.037,0.116-0.037,0.174-0.059
			c0.163-0.035,0.303-0.129,0.455-0.199c0.151-0.093,0.325-0.14,0.477-0.093c0.14,0.035,0.245,0.14,0.349,0.244
			c0.082-0.117,0.222-0.255,0.35-0.209c-0.012,0.071-0.012,0.14-0.036,0.209c0.059,0.035,0.105,0.069,0.175,0.106
			c0.011,0,0.011,0.011,0.035,0.011c0.012,0,0.035,0,0.046,0c0.093-0.011,0.187-0.011,0.28-0.035c0.081,0,0.186-0.013,0.255,0.059
			c0.012-0.035,0.035-0.093,0.046-0.128c0.012-0.036-0.012-0.082-0.046-0.117c-0.058,0-0.093,0-0.14-0.013
			c0-0.035,0.012-0.069,0.012-0.093c-0.023,0-0.082,0-0.116,0c0-0.082,0.034-0.187,0.069-0.269c0.174-0.011,0.326,0.013,0.489,0.047
			c0.035,0,0.07,0.024,0.105,0.035c0.023,0.024,0.035,0.059,0.058,0.07c0.093,0.14,0.279,0.222,0.454,0.257s0.36,0.035,0.523,0.069
			c0.129,0.013,0.222,0.047,0.326,0.117c0.093,0.071,0.153,0.175,0.153,0.292c-0.013,0.244-0.013,0.476-0.037,0.733
			c0,0.011,0,0.046,0,0.07c0.024,0.011,0.037,0.035,0.059,0.047c0.117,0.115,0.139,0.327,0.035,0.465
			c0.082,0.069,0.116,0.186,0.082,0.279c0.082,0.023,0.151,0.058,0.244,0.093c0.059,0.035,0.115-0.058,0.128-0.117
			c0.023-0.069,0.023-0.139,0.059-0.186c0.045-0.058,0.127-0.069,0.162-0.139c0.023-0.036,0.023-0.095,0.023-0.14
			c0-0.337,0.011-0.675,0.082-1.025c-0.071-0.011-0.082-0.115-0.082-0.197c0.011-0.186,0.071-0.396,0.151-0.571
			c0.117-0.233,0.396-0.313,0.642-0.385c0.069-0.022,0.127-0.035,0.174-0.08c0.022-0.024,0.035-0.059,0.059-0.071
			c0.023-0.057,0.08-0.093,0.128-0.104c0.104-0.069,0.221-0.139,0.326-0.221c0.149-0.105,0.326-0.21,0.488-0.14
			c0.035-0.011,0.035-0.07,0.07-0.104c0.036-0.036,0.093-0.012,0.14-0.036c0.069-0.011,0.117-0.081,0.151-0.15
			c0.022-0.036,0.035-0.071,0.057-0.082c0.013-0.011,0.048-0.036,0.061-0.047c0.139-0.069,0.242-0.209,0.279-0.361
			c0.011-0.069,0.011-0.139-0.037-0.173c-0.034-0.013-0.104-0.047-0.08-0.082c-0.059,0-0.105,0-0.128-0.046
			c-0.013-0.036,0.035-0.071,0.069-0.095c0.035,0,0.069,0.024,0.104,0.036c0.071,0.035,0.141,0.068,0.188,0.093
			c0.023-0.105,0-0.199,0.023-0.292c-0.07-0.035-0.129-0.093-0.14-0.162c-0.024-0.035-0.037-0.059-0.071-0.047
			c0.034-0.069,0.141-0.082,0.211-0.047c0.012-0.035,0.012-0.093,0.022-0.128c0.023-0.022,0.023-0.058,0.034-0.093
			c0.035-0.069,0.13-0.104,0.21-0.139c-0.034,0.139-0.08,0.29-0.115,0.419c-0.034,0.104-0.06,0.197-0.06,0.29
			c0,0.035,0.025,0.093,0.025,0.128c0.069-0.069,0.149-0.141,0.221-0.187c0.08-0.093,0.186-0.197,0.162-0.313
			c-0.034,0-0.058,0-0.093,0c0-0.117,0.011-0.257,0.047-0.374c0.012-0.035,0.069-0.011,0.104,0.013
			c0.013,0.035,0.035,0.069,0.069,0.093c0.013,0,0.035,0.011,0.035,0.035c0,0.013,0,0.035,0,0.035
			c-0.022,0.047-0.035,0.093-0.058,0.151c0.035,0.013,0.07,0.035,0.104,0.035c0.047-0.093,0.117-0.139,0.221-0.173
			c0.013-0.013,0.048-0.013,0.069-0.035c0.069-0.047,0.105-0.153,0.105-0.233c0-0.035,0.012-0.093,0.012-0.117
			c0.082-0.024,0.186,0,0.28,0.011c0.022,0.013,0.057,0.013,0.08,0c0.012,0,0.012-0.011,0.035-0.035
			c0.046-0.035,0.093,0,0.151,0.024c0.047,0.011,0.117,0,0.151-0.059c0.023-0.011,0.036-0.046,0.036-0.069
			c0-0.013-0.013-0.035-0.013-0.035c-0.058-0.071-0.164-0.082-0.233-0.093c-0.021,0-0.057-0.023-0.093-0.023
			c-0.023,0-0.023,0-0.035,0c0.106-0.035,0.223-0.047,0.327-0.069c0.059-0.013,0.128-0.013,0.186,0.022
			c0.035,0.013,0.048,0.047,0.082,0.071c0.082,0.046,0.187,0.011,0.256,0.059c0.139-0.117,0.29-0.233,0.454-0.188
			c-0.011-0.035-0.035-0.081-0.011-0.128c-0.036-0.035-0.082-0.022-0.118,0c-0.104,0.023-0.209,0.082-0.312,0.117
			c-0.013-0.035-0.048-0.059-0.061-0.093c0.082-0.045,0.151-0.045,0.233-0.093c0.104-0.069,0.14-0.21,0.222-0.315
			c0.151-0.186,0.432-0.186,0.688-0.221c0.268-0.035,0.523-0.117,0.757-0.268c-0.013,0.012-0.013,0.047-0.013,0.071
			c0.211-0.023,0.397-0.082,0.549-0.186c0.046-0.036,0.116-0.093,0.162-0.059c0.059,0.035,0.059,0.104,0.093,0.128
			c0.035,0.011,0.07,0.011,0.094,0.011c0.034,0,0.07,0.023,0.093,0.047c0.013,0.059-0.034,0.093-0.093,0.093
			c-0.046,0-0.094-0.035-0.128-0.035c-0.035-0.023-0.093-0.023-0.117,0c-0.034,0.035-0.058,0.069-0.093,0.115
			c-0.011-0.011-0.034-0.011-0.034-0.035c-0.012-0.035-0.071-0.035-0.106-0.011c-0.045,0-0.091,0.011-0.151,0.011
			c-0.116,0.023-0.255,0.058-0.303,0.151c-0.034,0.093,0,0.186,0.035,0.292c0.013,0.024,0.013,0.059,0.034,0.059
			c0.037,0.035,0.107,0.035,0.143,0.011c0.034-0.011,0.08-0.045,0.128-0.069c0.069-0.035,0.149-0.035,0.221-0.035
			c0.221-0.011,0.431-0.105,0.594-0.221c0.058-0.047,0.104-0.082,0.174-0.117c0.117-0.047,0.244-0.013,0.372,0
			c0.023,0,0.061,0,0.069,0c0.061-0.036,0.025-0.117,0.071-0.151c0.011,0,0.034,0,0.046,0c0.036-0.071,0.105-0.082,0.177-0.071
			c0.021,0.036,0.021,0.071,0.034,0.105c0.011,0.035,0.035,0.081,0.069,0.081c0.048,0.023,0.104-0.035,0.117-0.081
			c0.011-0.058,0.034-0.093,0.034-0.14c-0.047-0.011-0.082-0.035-0.116-0.046c-0.022-0.035,0.013-0.059,0.047-0.071
			c0.035-0.035,0.035-0.104,0.035-0.151c-0.035,0-0.069-0.035-0.082-0.059c-0.059-0.011-0.104-0.011-0.139,0.023
			c-0.037,0.013-0.071,0.035-0.106,0.082c0,0.141-0.116,0.256-0.233,0.292c-0.14,0.035-0.278,0.011-0.408,0
			c-0.069-0.024-0.139-0.024-0.173-0.071c-0.035-0.035-0.035-0.07-0.07-0.104c-0.034-0.047-0.105-0.082-0.163-0.117
			c-0.022-0.011-0.035-0.035-0.058-0.047c0-0.022,0-0.035,0-0.059c0.035-0.115,0.069-0.255,0.174-0.325
			c0.047-0.024,0.117-0.059,0.104-0.117c-0.139-0.035-0.278-0.069-0.43-0.106c-0.07-0.011-0.151-0.035-0.175-0.093
			c-0.013-0.059,0.035-0.128,0.104-0.128c0.07,0,0.116,0.093,0.186,0.093c0.036,0,0.071-0.024,0.105-0.024
			c0.117-0.011,0.233,0.071,0.36,0.071c0.013,0,0.047,0,0.07-0.013c0.012-0.022,0.035-0.035,0.046-0.069
			c0.048-0.117,0.105-0.279,0.013-0.361c-0.082-0.069-0.198-0.035-0.303-0.046c-0.069-0.023-0.141-0.035-0.175-0.093
			c-0.059,0.022-0.117,0.058-0.128,0.104c-0.244-0.046-0.478,0.105-0.698,0.221c-0.21,0.117-0.409,0.21-0.63,0.292
			c-0.069,0.035-0.139,0.045-0.208,0.104c-0.082,0.071-0.151,0.151-0.223,0.257c-0.034-0.023-0.034-0.023-0.08-0.035
			c-0.025-0.023-0.036-0.023-0.071-0.036c0.035-0.046,0.035-0.104,0.071-0.151c0.046-0.093,0.139-0.139,0.231-0.186
			c0.21-0.104,0.396-0.186,0.617-0.256c0.105-0.035,0.186-0.058,0.268-0.104c0.069-0.036,0.13-0.105,0.187-0.151
			c0.221-0.151,0.547-0.151,0.757-0.339c0.151,0.093,0.338,0.093,0.523,0.082c0.117,0,0.257,0,0.374,0c0.034,0,0.069,0,0.128,0.011
			c0.013,0,0.047,0.024,0.058,0.037c0.094,0.035,0.176,0.104,0.258,0.127c0.173,0.046,0.347,0.093,0.511,0.151
			C37.67,12.1,37.705,12.1,37.729,12.1s0.046-0.035,0.059-0.046c0.21-0.257,0.547-0.43,0.887-0.443c0.034,0,0.091,0,0.126,0.013
			c0.047,0.022,0.082,0.057,0.116,0.069c0.104,0.011,0.221-0.106,0.292-0.035c0.046-0.047,0.08-0.117,0.115-0.21
			c-0.035-0.023-0.046-0.047-0.104-0.058c0.035-0.035,0.059-0.093,0.059-0.141c0.036,0,0.059,0,0.093,0c0.024,0,0.059,0,0.069-0.011
			c0.024-0.024,0.024-0.024,0.024-0.035c0.036-0.129,0.082-0.257,0.116-0.385c0-0.011,0-0.011,0-0.035
			c0-0.011-0.034-0.023-0.046-0.023c-0.07,0-0.105,0.058-0.175,0.082c-0.071,0-0.105-0.059-0.151-0.082
			c-0.082-0.035-0.175,0-0.257,0.013c-0.221,0.069-0.477,0.186-0.663,0.069c-0.058-0.035-0.105-0.069-0.175-0.082
			c0.023-0.059,0.035-0.104,0.069-0.163c0.035,0.059,0.105,0.069,0.176,0.093c0.069,0,0.127,0,0.198-0.024
			c0.117-0.011,0.243-0.011,0.372,0c0.022-0.069,0.069-0.117,0.139-0.127c0.069-0.024,0.141,0,0.21,0
			c0.011-0.024,0-0.069-0.023-0.093c-0.012-0.011-0.046-0.011-0.081-0.035c-0.082-0.013-0.152-0.071-0.244-0.117
			c-0.095-0.071-0.198-0.117-0.28-0.186c-0.035-0.013-0.057-0.035-0.069-0.071c-0.022-0.011-0.022-0.046-0.022-0.081
			c-0.036-0.095-0.105-0.151-0.188-0.141c0-0.045,0-0.104,0-0.139c0.071,0.022,0.151,0.022,0.223,0.035
			c-0.013-0.071,0.021-0.129,0.034-0.222c0-0.035,0-0.046,0-0.081c0-0.071-0.013-0.117-0.013-0.186c0-0.023,0-0.035-0.021-0.058
			c0,0-0.013-0.013-0.035-0.013c-0.036-0.011-0.071-0.046-0.082-0.081c0.011-0.035,0.035-0.058,0.046-0.071
			c0.023-0.022,0.059-0.035,0.093-0.022c0-0.012,0-0.023,0-0.047c4.426,3.831,7.232,9.501,7.232,15.811
			C45.751,32.804,41.129,39.836,34.399,43.305z"/>
	</g>
	<g>
		<path fill="#616161" d="M36.11,13.136c-0.058-0.011-0.093-0.046-0.127-0.081c-0.035-0.035-0.048-0.071-0.082-0.105
			c-0.07,0.058-0.14,0.093-0.21,0.127c0,0.024,0,0.059,0,0.093c0,0.023,0,0.036,0.023,0.059c0,0,0.011,0.012,0.035,0.012
			c0.034,0.024,0.081,0.024,0.116,0.024c0.022,0,0.035,0,0.047,0c0.035,0.011,0.035,0.045,0.058,0.081
			c0.034,0.035,0.082,0.035,0.14,0.035c0.059,0,0.115-0.022,0.163-0.035c-0.012-0.07-0.012-0.139-0.012-0.21
			C36.226,13.125,36.169,13.16,36.11,13.136z"/>
	</g>
	<g>
		<path fill="#616161" d="M36.682,11.949c-0.093-0.035-0.233,0.035-0.326-0.011c0,0.024,0,0.046,0,0.082
			c0.023,0,0.023,0,0.034-0.023c0.023,0.058,0.035,0.104,0.069,0.151c0,0,0,0.023,0.023,0.023c0,0,0.012,0.011,0.037,0.011
			c0.034,0.023,0.08,0.023,0.091,0.058c0,0.011,0,0.035,0.023,0.046c0.012,0.024,0.037,0.024,0.071,0.035
			c0.104,0.024,0.197,0.024,0.29,0.036c0.013-0.036,0.035-0.082,0.048-0.117c-0.048-0.058-0.117-0.093-0.187-0.117
			C36.774,12.065,36.705,12.02,36.682,11.949z"/>
	</g>
	<g>
		<path fill="#616161" d="M39.126,13.102c0,0,0-0.011,0.011-0.011c0.105,0,0.199-0.013,0.292-0.069
			c0.011-0.047-0.023-0.117-0.069-0.153c-0.023-0.022-0.046-0.022-0.071-0.035c-0.011-0.011-0.046-0.035-0.034-0.069
			c0.069-0.035,0.141-0.082,0.222-0.117c0-0.024,0.024-0.059,0.024-0.069c-0.13-0.035-0.246-0.082-0.363-0.117
			c-0.08-0.035-0.186-0.07-0.268-0.082c0-0.022-0.022-0.059-0.035-0.059c0.035-0.011,0.082-0.046,0.082-0.104
			c-0.082,0-0.151,0-0.242,0.023c0-0.023,0-0.058,0-0.093c0.034,0,0.057-0.013,0.091-0.013c0.013,0,0.035,0,0.048,0
			c0.034-0.011,0.069-0.069,0.057-0.104c0.047-0.011,0.082-0.011,0.129,0c0.035-0.047,0.069-0.082,0.104-0.128
			c0.023-0.023,0.034-0.058,0.034-0.093c0-0.037-0.011-0.071,0-0.106c-0.046,0.035-0.104,0.059-0.151,0.069
			c-0.057,0-0.104,0-0.139,0.037c-0.034,0.022-0.034,0.058-0.047,0.093c-0.126-0.023-0.221,0.081-0.325,0.059
			c-0.023,0.035-0.034,0.069-0.047,0.104c0,0.023-0.022,0.023-0.022,0.035c-0.013,0.023-0.013,0.023-0.036,0.023
			c-0.035,0-0.046,0.011-0.081,0.024c-0.07,0.093-0.023,0.244-0.094,0.314c-0.012,0.011-0.046,0.035-0.081,0.047
			c-0.105,0.035-0.188,0.081-0.292,0.115c-0.116,0.059-0.255,0.129-0.324,0.223c-0.013,0.022-0.013,0.035-0.025,0.069
			c0.025,0.035,0.06,0.093,0.095,0.14c0.325,0.035,0.688,0.069,1.013,0.104c0,0.035,0,0.047,0,0.082
			c-0.059,0.024-0.104,0.046-0.174,0.069c0.046,0.07,0.08,0.152,0.139,0.221c0.117-0.104,0.221-0.186,0.338-0.291
			c0.034,0.024,0.069,0.035,0.116,0.024C39.021,13.194,39.091,13.16,39.126,13.102z"/>
	</g>
	<g>
		<path fill="#616161" d="M39.288,13.194c-0.034,0.035-0.08,0.071-0.139,0.082c-0.059,0.011-0.116,0.035-0.186,0.082l-0.013,0.022
			v0.012c0,0.059,0,0.104,0.013,0.151c0.104,0.024,0.209,0.035,0.313,0.035c0.011-0.047,0.036-0.093,0.046-0.152
			c0.013-0.035,0.036-0.082,0.071-0.104c0.034-0.013,0.069-0.013,0.081-0.036c-0.012-0.011-0.036-0.046-0.036-0.081
			C39.37,13.229,39.323,13.229,39.288,13.194z"/>
	</g>
	<g>
		<path fill="#616161" d="M36.856,12.695c-0.013,0.035-0.034,0.069-0.071,0.104c0,0.023-0.011,0.023-0.034,0.035
			c-0.011,0-0.035,0-0.046,0c-0.06,0-0.116-0.011-0.177-0.011c-0.009,0.024,0,0.082,0.025,0.117c0.035-0.035,0.08-0.071,0.128-0.035
			c0.034,0.011,0.059,0.046,0.093,0.046c0.011,0,0.035-0.011,0.048-0.035c0.034-0.035,0.045-0.047,0.08-0.082l0.023-0.011
			c0-0.023,0-0.023-0.023-0.035C36.902,12.753,36.892,12.729,36.856,12.695z"/>
	</g>
	<g>
		<path fill="#616161" d="M17.249,8.304c0.023,0.013,0,0.036,0,0.071c0,0.046,0,0.093,0,0.151c0,0.011,0,0.035,0,0.046
			c0,0.023,0.034,0.023,0.034,0.023c0.07-0.104,0.118-0.186,0.187-0.292c0.023-0.022,0.023-0.035,0.035-0.035
			c0.024,0,0.024,0,0.035,0c0.024,0,0.036-0.035,0.036-0.046c0.046-0.14,0.105-0.292,0.117-0.443c-0.046,0-0.117-0.024-0.163-0.024
			c0-0.035-0.024-0.081-0.024-0.115c-0.069,0-0.151,0-0.222,0c-0.011,0.221-0.046,0.418-0.104,0.641
			C17.213,8.27,17.236,8.282,17.249,8.304z"/>
	</g>
	<g>
		<path fill="#616161" d="M17.469,9.12c0.035,0.023,0.035,0.071,0.059,0.105c0.011,0.046,0.081,0.069,0.117,0.104
			c0.046,0.069,0.011,0.186,0.069,0.233c0.07,0.069,0.163,0.035,0.256,0.046c0.012,0.035,0.012,0.093,0.035,0.129
			c0,0.035,0.012,0.069,0.023,0.08c0.023,0.024,0.058,0.024,0.069,0.024c0.07,0,0.141,0,0.222,0c0.058-0.093,0.023-0.21-0.059-0.257
			c0.012-0.035,0.012-0.093,0.024-0.127c0-0.011,0-0.035,0-0.035c0-0.011-0.012-0.024-0.024-0.024
			c-0.093-0.058-0.174-0.104-0.209-0.197c-0.023-0.035-0.023-0.059-0.035-0.093C17.982,9.05,17.912,9.05,17.865,9.05
			c-0.117,0-0.245-0.011-0.361-0.011C17.504,9.05,17.492,9.085,17.469,9.12z"/>
	</g>
	<g>
		<path fill="#616161" d="M28.136,20.961c0.011,0,0.046,0,0.046-0.023c0-0.011,0-0.011,0-0.035c0-0.046,0.023-0.093,0.023-0.151
			c0.034,0,0.082-0.011,0.116-0.035h0.022c0.013-0.047-0.057-0.162-0.104-0.162c-0.023,0-0.034,0-0.058-0.024
			c-0.035-0.035,0-0.082-0.035-0.14c-0.011-0.024-0.093-0.024-0.093,0.023c0,0.011,0,0.046,0,0.069c0.011,0.047,0.011,0.117,0,0.164
			c-0.023,0.069-0.035,0.128-0.035,0.197C28.03,20.892,28.064,20.961,28.136,20.961z"/>
	</g>
	<g>
		<path fill="#616161" d="M28.112,19.984c0.034-0.037,0.104-0.037,0.139,0c0.023-0.037,0-0.082-0.012-0.117
			c-0.023-0.035-0.069-0.047-0.127-0.035c-0.048,0.023-0.059,0.093-0.059,0.151v0.022C28.064,20.006,28.1,19.984,28.112,19.984z"/>
	</g>
	<g>
		<path fill="#616161" d="M28.495,19.867c0,0.023,0,0.035,0,0.035c0,0.023,0,0.045,0.013,0.071c0.022,0.011,0.034,0.033,0.069,0.033
			c-0.022,0.082-0.022,0.175,0.013,0.233c0.034,0.023,0.092-0.011,0.104-0.046c0-0.013,0-0.035,0-0.047
			c-0.012-0.14-0.012-0.255-0.034-0.396c-0.104,0.035-0.221-0.035-0.233-0.117c-0.069,0-0.139,0.047-0.117,0.117
			c0.048,0.047,0.095,0.069,0.151,0.082C28.46,19.856,28.473,19.856,28.495,19.867z"/>
	</g>
	<g>
		<path fill="#616161" d="M28.612,20.519c-0.035,0-0.082,0-0.117,0.012c0,0.024,0,0.035,0,0.059c0.013,0.035,0.047,0.035,0.06,0.035
			c0.035,0,0.092,0.011,0.104,0.023c0.022,0.022,0.034,0.035,0.057,0.035c0.035,0.022,0.082,0,0.117-0.035
			c0.034-0.023,0.034-0.082,0.034-0.117c-0.034,0-0.069,0-0.104,0h-0.013c0,0,0-0.012,0-0.035c0-0.036,0-0.071,0-0.105
			C28.659,20.391,28.612,20.449,28.612,20.519z"/>
	</g>
	<g>
		<path fill="#616161" d="M28.846,21.007c0.021,0.023,0.058,0,0.058-0.033c0.012-0.013,0-0.047,0-0.071
			c0.033,0,0.069-0.024,0.069-0.059s-0.023-0.069,0-0.104c-0.036,0-0.058,0-0.093,0.011c-0.034,0.093-0.047,0.151-0.082,0.244
			C28.833,20.974,28.846,20.996,28.846,21.007z"/>
	</g>
	<g>
		<path fill="#616161" d="M28.833,21.251c-0.069,0.037-0.104,0.095-0.104,0.164c0.059-0.013,0.104,0,0.117,0.059
			c0.069,0,0.139-0.093,0.127-0.151c0-0.035-0.036-0.071-0.036-0.106c0-0.022,0-0.022,0-0.035c0-0.022-0.033-0.058-0.057-0.035
			c-0.013,0-0.047,0.013-0.047,0.047c0,0.022,0,0.022,0,0.035C28.846,21.229,28.833,21.251,28.833,21.251z"/>
	</g>
	<g>
		<path fill="#616161" d="M29.101,21.729c0,0.035-0.011,0.047-0.011,0.082c0.034,0.046,0.115,0.035,0.151-0.023
			c0.011-0.011,0.011-0.046,0.011-0.059c0-0.093,0.023-0.175,0.023-0.255c0-0.024,0-0.035,0-0.059c-0.023-0.013-0.034-0.013-0.034,0
			c-0.046,0.035-0.105,0.104-0.117,0.175c0,0.035-0.023,0.104-0.058,0.104C29.054,21.695,29.09,21.729,29.101,21.729z"/>
	</g>
	<g>
		<path fill="#616161" d="M29.485,21.812c0.023,0,0.059-0.023,0.093-0.023c-0.011,0.023,0,0.058,0.024,0.058
			c0.011,0.011,0.034,0.011,0.069,0.011h0.013l0.021-0.011c0.013-0.035,0.013-0.082,0.023-0.117c-0.058,0.013-0.116,0.013-0.186,0
			c-0.011,0-0.035-0.022-0.048-0.022c-0.034,0-0.045,0.022-0.045,0.057C29.427,21.777,29.451,21.788,29.485,21.812z"/>
	</g>
	<g>
		<path fill="#616161" d="M29.16,22.173c-0.024,0.058,0.045,0.127,0.092,0.093c0.023,0,0.035-0.013,0.059-0.035
			c0.036-0.013,0.105,0,0.141-0.023c0.034-0.035,0.034-0.093,0.011-0.141c-0.035,0-0.071-0.022-0.105-0.022c-0.01,0-0.01,0-0.035,0
			c-0.011,0-0.011,0.022-0.011,0.022C29.275,22.138,29.23,22.173,29.16,22.173z"/>
	</g>
	<g>
		<path fill="#616161" d="M27.81,23.034c-0.048-0.035-0.012-0.105-0.048-0.151c-0.023-0.035-0.069-0.035-0.104-0.035
			c-0.037,0.023-0.071,0.035-0.082,0.069c0,0.011-0.024,0.035-0.035,0.035c-0.023,0-0.036,0-0.059,0
			c-0.034,0-0.069,0.036-0.093,0.013c-0.023,0-0.023-0.013-0.036-0.013c-0.057-0.035-0.126-0.023-0.15,0.036
			c0.046-0.023,0.081,0,0.115,0.046c0.013,0.035,0.035,0.093,0.013,0.14c0.069-0.035,0.151,0,0.21,0.046c0,0,0,0.024,0.011,0.024
			c0.024,0.011,0.061,0,0.095,0c0.022,0,0.046,0.035,0.081,0.047c0.045,0.035,0.105,0.035,0.151,0
			c0.034-0.013,0.045-0.047,0.07-0.082c0.035-0.047,0.035-0.106,0-0.141C27.913,23.034,27.844,23.068,27.81,23.034z"/>
	</g>
	<g>
		<path fill="#616161" d="M28.846,22.545c0.034-0.035,0.034-0.106,0-0.151c-0.035-0.059-0.082-0.069-0.117-0.104
			c-0.151-0.082-0.338-0.141-0.454-0.257c-0.104-0.104-0.175-0.221-0.256-0.337c-0.095-0.128-0.186-0.221-0.35-0.245
			c-0.093-0.011-0.199,0.024-0.279-0.035c-0.036-0.013-0.059-0.045-0.093-0.082c-0.187-0.209-0.489-0.244-0.781-0.268
			c0-0.035,0-0.069-0.011-0.104c-0.104,0-0.21,0.046-0.314,0.069c-0.105,0.013-0.221,0.013-0.303-0.057
			c-0.024,0.057-0.035,0.091-0.07,0.115c-0.035-0.011-0.069,0.023-0.104,0.035c-0.036,0.058-0.07,0.105-0.117,0.164
			c-0.035,0.045-0.082,0.127-0.023,0.162c0.209-0.035,0.43-0.08,0.64-0.151c0.081-0.035,0.15-0.069,0.232-0.047
			c0.081,0,0.175,0.071,0.175,0.151c0.07,0.047,0.163,0.013,0.232,0.047c0.105,0.035,0.175,0.151,0.257,0.245
			c0.104,0.082,0.256,0.117,0.359,0.199c0.117,0.104,0.151,0.29,0.303,0.337c0.037,0.022,0.095,0.022,0.13,0.035
			c0.021,0.024,0.059,0.059,0.047,0.104c-0.082,0.024-0.151,0.069-0.211,0.117c0.06,0.024,0.129,0.024,0.175,0.024
			c0.223,0,0.431,0.08,0.642,0.14C28.646,22.545,28.764,22.51,28.846,22.545z"/>
	</g>
	<g>
		<path fill="#616161" d="M26.271,21.45c-0.022,0-0.081,0-0.116-0.011c-0.07,0-0.128,0.011-0.151,0.08
			c0.059,0,0.104,0.013,0.151,0.013c0.059,0,0.116,0,0.151-0.047c0-0.011,0-0.035,0-0.035C26.295,21.45,26.295,21.45,26.271,21.45z"
			/>
	</g>
	<g>
		<path fill="#616161" d="M30.532,23.022c-0.104,0.035-0.221,0.046-0.303-0.023c-0.034-0.035-0.069-0.071-0.104-0.093
			c-0.117-0.14-0.29-0.197-0.479-0.209c-0.034,0-0.069-0.013-0.104,0c-0.035,0-0.048,0.013-0.059,0.035
			c-0.129,0.011-0.255,0.011-0.385-0.035c-0.047-0.013-0.116-0.046-0.164-0.035c0.013,0.022,0.013,0.035,0,0.047
			c0.036,0,0.072,0.033,0.072,0.068c0.045,0.025,0.092,0.036,0.151,0.036c0.01,0,0.045,0.023,0.045,0.035
			c0,0.023,0.025,0.035,0.025,0.035c0.011,0.069,0.011,0.14,0.021,0.21c-0.128,0.047-0.279-0.024-0.441-0.07
			c-0.013,0-0.047-0.023-0.06-0.023c-0.035,0-0.058,0.023-0.069,0.058c-0.035,0.011-0.058,0.046-0.092,0.07
			c0.057,0.047,0.126,0.058,0.197,0.082c0.023,0,0.046,0.011,0.059,0.035c0.021,0.011,0.034,0.069,0.058,0.082
			c0.033,0.022,0.069,0,0.115,0c0.117-0.035,0.233-0.047,0.363-0.013c0.009,0,0.045,0.013,0.069,0.035v0.013l0,0l0,0l0,0
			c0.058,0.011,0.116,0.104,0.151,0.151c0.034,0.069,0.104,0.139,0.162,0.139c0.035,0,0.071-0.022,0.105-0.046
			c0.243-0.164,0.523-0.244,0.779-0.14c0-0.059,0.023-0.093,0.034-0.117c0.07,0.023,0.176-0.069,0.141-0.139
			C30.684,23.22,30.557,23.139,30.532,23.022z"/>
	</g>
	<g>
		<path fill="#616161" d="M17.831,6.79c0.046,0.013,0.104,0.013,0.151,0.037c0.023,0.045,0.035,0.093,0.023,0.151
			c0.023,0.011,0.058,0.011,0.117,0.035c-0.024,0.104-0.035,0.197-0.035,0.303c0.082,0.011,0.152,0.011,0.233,0.035
			c0.035-0.141,0.058-0.268,0.093-0.396c-0.058-0.011-0.093-0.035-0.104-0.069c-0.023,0.035-0.035,0.059-0.069,0.093
			c-0.036-0.035-0.036-0.093-0.047-0.117c-0.023-0.035-0.07-0.071-0.105-0.035c0-0.037-0.023-0.071-0.035-0.106
			c-0.023-0.035-0.023-0.069,0.012-0.093c0.035-0.024,0.093,0.023,0.14,0.035c0.023-0.035,0.036-0.081,0.058-0.117
			c0.012,0.071,0.012,0.14,0,0.209c0.047,0,0.093,0.013,0.151,0.035c-0.022-0.104-0.093-0.186-0.093-0.29
			c0-0.058,0.023-0.105-0.012-0.117c0.012-0.035,0.012-0.069,0.035-0.104c-0.035-0.035-0.104-0.024-0.14,0.035
			c-0.035,0.035-0.046,0.081-0.081,0.117c-0.059,0.046-0.117,0.069-0.175,0.046c0,0.035,0,0.069,0.023,0.105
			c-0.058,0.035-0.104,0.035-0.163,0.035c0,0.046,0,0.104,0,0.151c0,0.022,0,0.022,0,0.035C17.807,6.79,17.807,6.79,17.831,6.79z"/>
	</g>
	<g>
		<path fill="#616161" d="M22.802,30.532c-0.012-0.034-0.035-0.082-0.082-0.082c-0.035,0-0.07,0.013-0.094,0.048
			c-0.046,0.046-0.093,0.104-0.116,0.173c0.07,0.037,0.116,0.048,0.186,0.082c0.035,0.012,0.07,0.035,0.105,0.035
			c0.035,0,0.069-0.035,0.069-0.08c0-0.024-0.023-0.037-0.035-0.059C22.825,30.614,22.825,30.567,22.802,30.532z"/>
	</g>
	<g>
		<path fill="#616161" d="M22.511,30.45c0.022-0.023,0.035-0.023,0.07-0.023c0.011-0.069,0.081-0.139,0.069-0.197
			c-0.023-0.034-0.035-0.069-0.069-0.093c-0.082-0.047-0.175-0.047-0.257-0.035c-0.012,0-0.046,0.024-0.046,0.035
			c0,0.023,0,0.023,0,0.035c0.011,0.116,0.128,0.209,0.255,0.186C22.511,30.393,22.511,30.427,22.511,30.45z"/>
	</g>
	<g>
		<path fill="#616161" d="M32.514,26.679c-0.035,0-0.048,0.023-0.071,0.058c-0.011,0.048-0.011,0.104,0.023,0.128
			c0.024,0.035,0.094,0.035,0.128-0.013c0.023-0.046-0.011-0.104-0.046-0.139C32.524,26.702,32.524,26.679,32.514,26.679z"/>
	</g>
	<g>
		<path fill="#616161" d="M33.176,25.828c-0.046-0.011-0.104,0.035-0.139,0.082c-0.013,0.059-0.035,0.104-0.035,0.162
			c0,0.048,0.022,0.128,0.069,0.128c0.022,0,0.035-0.011,0.059-0.011c0.046-0.035,0.093-0.069,0.093-0.117
			C33.258,25.979,33.165,25.91,33.176,25.828z"/>
	</g>
	<g>
		<path fill="#616161" d="M32.652,26.038c-0.093,0-0.162,0.082-0.162,0.162c0,0.035,0.023,0.071,0.058,0.071
			c0.012,0,0.012,0,0.035,0c0.034-0.013,0.069-0.036,0.116-0.048c0.035-0.023,0.069-0.034,0.069-0.058
			C32.781,26.107,32.711,26.038,32.652,26.038z"/>
	</g>
	<g>
		<path fill="#616161" d="M32.92,25.562c-0.034-0.036-0.082-0.025-0.116,0.011c-0.035,0.035-0.035,0.093-0.035,0.139
			c0,0.071,0.035,0.141,0.082,0.141c0.069,0,0.081-0.069,0.104-0.104c0.034-0.059-0.023-0.082-0.023-0.141
			C32.932,25.573,32.932,25.573,32.92,25.562z"/>
	</g>
	<g>
		<path fill="#616161" d="M33.094,25.305c-0.022-0.035-0.069-0.059-0.104-0.059c-0.058,0-0.104,0-0.139,0.024
			c-0.034,0.011-0.069,0.069-0.069,0.115c0.069,0.117,0.15,0,0.243,0.023c0.013,0,0.034,0,0.047,0
			C33.106,25.385,33.106,25.339,33.094,25.305z"/>
	</g>
	<g>
		<path fill="#616161" d="M32.838,25.002c-0.069,0.011-0.127,0.117-0.104,0.186c0.069,0.047,0.186,0,0.268-0.035
			c0.022,0,0.022-0.024,0.035-0.024c0-0.011,0-0.011,0-0.035C33.002,25.013,32.907,24.967,32.838,25.002z"/>
	</g>
	<g>
		<path fill="#616161" d="M32.838,24.838c0.069,0.023,0.117,0.058,0.187,0c0.013-0.011,0.034-0.011,0.034-0.035
			c0.013-0.035,0.013-0.059,0-0.093c-0.034-0.058-0.127-0.058-0.173,0C32.838,24.757,32.781,24.838,32.838,24.838z"/>
	</g>
	<g>
		<path fill="#616161" d="M32.734,24.583c0,0.023-0.023,0.058,0,0.093c0.011,0.013,0.047,0.035,0.069,0.013
			c-0.022-0.047,0.034-0.082,0.069-0.105c0.034-0.011,0.082-0.035,0.095-0.082c0-0.011,0-0.046-0.013-0.069
			c-0.035-0.046-0.104-0.035-0.151,0C32.769,24.466,32.745,24.513,32.734,24.583z"/>
	</g>
	<g>
		<path fill="#616161" d="M32.583,24.351c0.047,0.035,0.104,0.011,0.151,0c0.069-0.024,0.139-0.047,0.139-0.118
			c-0.022-0.059-0.092-0.069-0.128-0.059c-0.046,0.024-0.093,0-0.128,0.059C32.56,24.269,32.583,24.314,32.583,24.351z"/>
	</g>
	<g>
		<path fill="#616161" d="M31.627,24.198c0.013,0,0.048,0,0.069-0.024c0.071-0.011,0.13-0.069,0.13-0.127
			c0-0.059-0.059-0.093-0.117-0.104c-0.047-0.023-0.116-0.023-0.151-0.035c-0.047-0.023-0.082-0.069-0.139-0.069
			c-0.035,0-0.069,0.035-0.069,0.081c0,0.058,0.057,0.093,0.092,0.105c0.047,0.022,0.082,0.035,0.116,0.069
			C31.57,24.128,31.593,24.174,31.627,24.198z"/>
	</g>
	<g>
		<path fill="#616161" d="M32.186,23.907c-0.046,0.011-0.081,0.035-0.115,0.081c-0.023,0.036-0.035,0.105,0,0.141
			c0.046,0.035,0.115,0,0.162,0c0.024,0,0.035,0,0.059-0.024c0.011-0.011,0.011-0.011,0.036-0.035
			c0.011-0.023,0.035-0.058,0.035-0.093C32.338,23.884,32.257,23.884,32.186,23.907z"/>
	</g>
	<g>
		<path fill="#616161" d="M31.696,26.259c-0.057,0-0.126,0.035-0.139,0.082c-0.021,0.046,0,0.105,0.035,0.139
			c0.069-0.022,0.14-0.057,0.198-0.069c0.035-0.023,0.069-0.035,0.059-0.059c0-0.011-0.023-0.011-0.023-0.021
			C31.813,26.271,31.768,26.259,31.696,26.259z"/>
	</g>
</g>
</svg>
